<svg width="69" height="69" viewBox="0 0 69 69" fill="none" xmlns="http://www.w3.org/2000/svg">
<rect width="69" height="69" rx="12" fill="white"/>
<path d="M19.8182 55C16.5485 55 13.7618 53.8375 11.458 51.5126C9.15424 49.1877 8.00158 46.3773 8 43.0814C7.99843 39.7855 9.15109 36.9751 11.458 34.6502C13.7649 32.3252 16.5516 31.1628 19.8182 31.1628C23.0847 31.1628 25.8722 32.3252 28.1807 34.6502C30.4892 36.9751 31.6411 39.7855 31.6364 43.0814C31.6316 46.3773 30.479 49.1885 28.1784 51.515C25.8778 53.8415 23.091 55.0032 19.8182 55ZM19.8182 46.657C18.8333 46.657 17.9966 46.3097 17.308 45.6153C16.6194 44.9208 16.2743 44.0762 16.2727 43.0814C16.2712 42.0866 16.6162 41.2427 17.308 40.5499C17.9998 39.857 18.8365 39.509 19.8182 39.5058C20.7999 39.5026 21.6374 39.8507 22.3307 40.5499C23.0241 41.2491 23.3684 42.0929 23.3636 43.0814C23.3589 44.0698 23.0146 44.9145 22.3307 45.6153C21.6469 46.3161 20.8093 46.6633 19.8182 46.657ZM51.7273 55C49.4424 55 47.4924 54.1856 45.8773 52.5567C44.2621 50.9278 43.4545 48.9612 43.4545 46.657C43.4545 44.3527 44.2621 42.3861 45.8773 40.7573C47.4924 39.1284 49.4424 38.3139 51.7273 38.3139C54.0121 38.3139 55.9621 39.1284 57.5773 40.7573C59.1924 42.3861 60 44.3527 60 46.657C60 48.9612 59.1924 50.9278 57.5773 52.5567C55.9621 54.1856 54.0121 55 51.7273 55ZM15.0909 28.7791C14.4212 28.7791 13.8602 28.5502 13.408 28.0926C12.9558 27.6349 12.7289 27.0691 12.7273 26.3953C12.7257 25.7215 12.9526 25.1558 13.408 24.6981C13.8634 24.2405 14.4244 24.0116 15.0909 24.0116H22.1818C23.4818 24.0116 24.5951 24.4788 25.5216 25.4133C26.4482 26.3477 26.9107 27.4696 26.9091 28.7791H15.0909ZM19.8182 50.2326C21.7879 50.2326 23.4621 49.5373 24.8409 48.1468C26.2197 46.7563 26.9091 45.0678 26.9091 43.0814C26.9091 41.095 26.2197 39.4065 24.8409 38.016C23.4621 36.6255 21.7879 35.9302 19.8182 35.9302C17.8485 35.9302 16.1742 36.6255 14.7955 38.016C13.4167 39.4065 12.7273 41.095 12.7273 43.0814C12.7273 45.0678 13.4167 46.7563 14.7955 48.1468C16.1742 49.5373 17.8485 50.2326 19.8182 50.2326ZM51.7273 50.2326C52.7121 50.2326 53.5496 49.8853 54.2398 49.1909C54.93 48.4964 55.2743 47.6518 55.2727 46.657C55.2712 45.6622 54.9268 44.8183 54.2398 44.1255C53.5528 43.4326 52.7153 43.0846 51.7273 43.0814C50.7393 43.0782 49.9025 43.4262 49.2171 44.1255C48.5316 44.8247 48.1866 45.6685 48.1818 46.657C48.1771 47.6454 48.5222 48.4901 49.2171 49.1909C49.912 49.8917 50.7487 50.2389 51.7273 50.2326ZM33.7636 45.4651H41.2091C41.603 42.6046 42.8337 40.3202 44.9011 38.6119C46.9685 36.9036 49.303 36.0494 51.9045 36.0494C52.8894 36.0494 53.8648 36.1885 54.8307 36.4666C55.7967 36.7447 56.7319 37.1618 57.6364 37.718V26.3953C57.6364 25.0843 57.1739 23.9624 56.2489 23.0295C55.3239 22.0967 54.2107 21.6295 52.9091 21.6279H38.0182L35.5364 19.0058L38.8455 15.6686L37.1909 14L28.8 22.4622L30.5727 24.1308L33.8818 20.7936L36.3636 23.2965V28.7791C36.3636 30.0901 35.9012 31.2128 34.9762 32.1473C34.0512 33.0817 32.9379 33.5481 31.6364 33.5465H30.3364C31.5182 34.8576 32.4148 36.3275 33.0262 37.9564C33.6376 39.5853 33.9425 41.2936 33.9409 43.0814C33.9409 43.4787 33.9307 43.876 33.9102 44.2732C33.8897 44.6705 33.8409 45.0678 33.7636 45.4651Z" fill="#146B1C"/>
</svg>
