<svg width="26" height="26" viewBox="0 0 26 26" fill="none" xmlns="http://www.w3.org/2000/svg">
<path d="M24.2816 13.165C24.2816 6.74016 19.2437 1.47187 12.9559 1.47187C6.66809 1.47187 1.63025 6.74016 1.63025 13.165C1.63025 19.5899 6.66809 24.8582 12.9559 24.8582C19.2437 24.8582 24.2816 19.5899 24.2816 13.165ZM12.9451 17.3808C12.9499 17.3759 12.9535 17.374 12.955 17.3734C12.9554 17.3732 12.9557 17.3731 12.9559 17.373C12.9561 17.3731 12.9564 17.3732 12.9568 17.3734C12.9583 17.374 12.962 17.3759 12.9667 17.3808C12.9769 17.3913 12.9885 17.4128 12.9885 17.4423C12.9885 17.4717 12.9769 17.4932 12.9667 17.5038C12.962 17.5087 12.9583 17.5105 12.9568 17.5112C12.9564 17.5114 12.9561 17.5115 12.9559 17.5115C12.9557 17.5115 12.9554 17.5114 12.955 17.5112C12.9535 17.5105 12.9499 17.5087 12.9451 17.5038C12.935 17.4932 12.9234 17.4717 12.9234 17.4423C12.9234 17.4128 12.935 17.3913 12.9451 17.3808ZM12.9473 7.75498C12.9514 7.75125 12.9543 7.74986 12.9555 7.74941C12.9557 7.74933 12.9558 7.74927 12.956 7.74922C12.9562 7.74929 12.9565 7.74939 12.9568 7.74955C12.9583 7.75019 12.962 7.75207 12.9667 7.75697C12.9769 7.7675 12.9885 7.789 12.9885 7.81845V14.2055L12.9854 14.2586C12.9805 14.2784 12.9707 14.2914 12.9637 14.2975C12.9597 14.301 12.9569 14.3021 12.9561 14.3023C12.956 14.3024 12.956 14.3024 12.9559 14.3024C12.9556 14.3023 12.9551 14.3021 12.9544 14.3018C12.9526 14.3009 12.9488 14.2987 12.9441 14.2935C12.9341 14.2826 12.9235 14.2616 12.9234 14.2336C12.9234 14.2335 12.9234 14.2334 12.9234 14.2333L12.9234 7.8473L12.9265 7.79341C12.9311 7.77434 12.9402 7.76149 12.9473 7.75498Z" fill="#FF2525" stroke="white" stroke-width="2"/>
</svg>
