<svg width="1440" height="933" viewBox="0 0 1440 933" fill="none" xmlns="http://www.w3.org/2000/svg">
<g clip-path="url(#clip0_24_26)">
<rect width="1440" height="933" fill="white" fill-opacity="0.2"/>
<path d="M1274.83 0.268066C1246.18 0.306361 1222.93 23.385 1222.61 51.978C1251.26 51.9397 1274.5 28.8611 1274.83 0.268066Z" fill="#007C37" fill-opacity="0.05"/>
<path d="M1274.83 110.045C1246.18 110.083 1222.93 133.162 1222.61 161.755C1251.26 161.716 1274.5 138.638 1274.83 110.045Z" fill="#91C254" fill-opacity="0.05"/>
<path d="M1329.71 162.01C1329.67 133.353 1306.6 110.096 1278.01 109.777C1278.05 138.434 1301.12 161.678 1329.71 162.01Z" fill="#91C254" fill-opacity="0.05"/>
<path d="M1222.61 54.6203C1222.65 83.2771 1245.72 106.534 1274.31 106.854C1274.27 78.1968 1251.2 54.9394 1222.61 54.6203Z" fill="#007C37" fill-opacity="0.05"/>
<path d="M1385.12 110.045C1356.47 110.083 1333.22 133.162 1332.9 161.755C1361.55 161.716 1384.8 138.638 1385.12 110.045Z" fill="#91C254" fill-opacity="0.05"/>
<path d="M1332.9 54.6203C1332.94 83.2771 1356.01 106.534 1384.6 106.854C1384.56 78.1968 1361.49 54.9394 1332.9 54.6203Z" fill="#007C37" fill-opacity="0.05"/>
<path d="M1274.83 219.822C1246.18 219.86 1222.93 242.938 1222.61 271.531C1251.26 271.493 1274.5 248.415 1274.83 219.822Z" fill="#007C37" fill-opacity="0.05"/>
<path d="M1329.71 271.787C1329.67 243.13 1306.6 219.873 1278.01 219.553C1278.05 248.21 1301.12 271.455 1329.71 271.787Z" fill="#007C37" fill-opacity="0.05"/>
<path d="M1277.49 216.362C1306.14 216.324 1329.39 193.245 1329.71 164.652C1301.06 164.691 1277.81 187.769 1277.49 216.362Z" fill="#91C254" fill-opacity="0.05"/>
<path d="M1222.61 164.397C1222.65 193.054 1245.72 216.311 1274.31 216.63C1274.27 187.974 1251.2 164.716 1222.61 164.397Z" fill="#91C254" fill-opacity="0.05"/>
<path d="M1440 271.787C1439.96 243.13 1416.89 219.873 1388.3 219.553C1388.34 248.21 1411.41 271.455 1440 271.787Z" fill="#007C37" fill-opacity="0.05"/>
<path d="M1387.78 216.362C1416.43 216.324 1439.68 193.245 1440 164.652C1411.35 164.691 1388.1 187.769 1387.78 216.362Z" fill="#007C37" fill-opacity="0.05"/>
<path d="M1332.9 164.397C1332.94 193.054 1356.01 216.311 1384.6 216.63C1384.56 187.974 1361.49 164.716 1332.9 164.397Z" fill="#91C254" fill-opacity="0.05"/>
<path d="M1277.49 326.139C1306.14 326.101 1329.39 303.022 1329.71 274.429C1301.06 274.467 1277.81 297.546 1277.49 326.139Z" fill="#007C37" fill-opacity="0.05"/>
<path d="M1387.78 326.139C1416.43 326.101 1439.68 303.022 1440 274.429C1411.35 274.467 1388.1 297.546 1387.78 326.139Z" fill="#007C37" fill-opacity="0.05"/>
<path d="M1332.9 274.174C1332.94 302.831 1356.01 326.088 1384.6 326.407C1384.56 297.75 1361.49 274.493 1332.9 274.174Z" fill="#007C37" fill-opacity="0.05"/>
<path d="M1108.93 52.2333C1108.89 23.5765 1085.81 0.319118 1057.23 0C1057.26 28.6568 1080.34 51.9014 1108.93 52.2333Z" fill="#007C37" fill-opacity="0.05"/>
<path d="M1164.34 0.268066C1135.69 0.306361 1112.43 23.385 1112.12 51.978C1140.77 51.9397 1164.02 28.8611 1164.34 0.268066Z" fill="#007C37" fill-opacity="0.05"/>
<path d="M1219.22 52.2333C1219.18 23.5765 1196.1 0.319118 1167.52 0C1167.55 28.6568 1190.63 51.9014 1219.22 52.2333Z" fill="#007C37" fill-opacity="0.05"/>
<path d="M604.822 110.045C576.171 110.083 552.918 133.162 552.599 161.755C581.25 161.716 604.49 138.638 604.822 110.045Z" fill="#007C37" fill-opacity="0.05"/>
<path d="M1108.93 162.01C1108.89 133.353 1085.81 110.096 1057.23 109.777C1057.26 138.434 1080.34 161.678 1108.93 162.01Z" fill="#007C37" fill-opacity="0.05"/>
<path d="M1056.7 106.586C1085.35 106.547 1108.61 83.4686 1108.93 54.8756C1080.27 54.9139 1057.02 77.9925 1056.7 106.586Z" fill="#007C37" fill-opacity="0.05"/>
<path d="M552.599 54.6203C552.638 83.2771 575.712 106.534 604.299 106.854C604.26 78.1968 581.187 54.9394 552.599 54.6203Z" fill="#007C37" fill-opacity="0.05"/>
<path d="M1164.34 110.045C1135.69 110.083 1112.43 133.162 1112.12 161.755C1140.77 161.716 1164.02 138.638 1164.34 110.045Z" fill="#007C37" fill-opacity="0.05"/>
<path d="M1219.22 162.01C1219.18 133.353 1196.1 110.096 1167.52 109.777C1167.55 138.434 1190.63 161.678 1219.22 162.01Z" fill="#007C37" fill-opacity="0.05"/>
<path d="M1166.99 106.586C1195.64 106.547 1218.9 83.4686 1219.22 54.8756C1190.56 54.9139 1167.31 77.9925 1166.99 106.586Z" fill="#007C37" fill-opacity="0.05"/>
<path d="M1112.12 54.6203C1112.15 83.2771 1135.23 106.534 1163.82 106.854C1163.78 78.1968 1140.7 54.9394 1112.12 54.6203Z" fill="#007C37" fill-opacity="0.05"/>
<path d="M604.822 219.822C576.171 219.86 552.918 242.938 552.599 271.531C581.25 271.493 604.49 248.415 604.822 219.822Z" fill="#91C254" fill-opacity="0.05"/>
<path d="M1164.34 219.822C1135.69 219.86 1112.43 242.938 1112.12 271.531C1140.77 271.493 1164.02 248.415 1164.34 219.822Z" fill="#007C37" fill-opacity="0.05"/>
<path d="M1166.99 216.362C1195.64 216.324 1218.9 193.245 1219.22 164.652C1190.56 164.691 1167.31 187.769 1166.99 216.362Z" fill="#007C37" fill-opacity="0.05"/>
<path d="M1112.12 164.397C1112.15 193.054 1135.23 216.311 1163.82 216.63C1163.78 187.974 1140.7 164.716 1112.12 164.397Z" fill="#007C37" fill-opacity="0.05"/>
<path d="M604.822 329.598C576.171 329.636 552.918 352.715 552.599 381.308C581.25 381.27 604.49 358.191 604.822 329.598Z" fill="#007C37" fill-opacity="0.05"/>
<path d="M1056.7 326.139C1085.35 326.101 1108.61 303.022 1108.93 274.429C1080.27 274.467 1057.02 297.546 1056.7 326.139Z" fill="#91C254" fill-opacity="0.05"/>
<path d="M552.599 274.174C552.638 302.831 575.712 326.088 604.299 326.407C604.26 297.75 581.187 274.493 552.599 274.174Z" fill="#91C254" fill-opacity="0.05"/>
<path d="M1219.22 381.564C1219.18 352.907 1196.1 329.649 1167.52 329.33C1167.55 357.987 1190.63 381.232 1219.22 381.564Z" fill="#91C254" fill-opacity="0.05"/>
<path d="M1112.12 274.174C1112.15 302.831 1135.23 326.088 1163.82 326.407C1163.78 297.75 1140.7 274.493 1112.12 274.174Z" fill="#007C37" fill-opacity="0.05"/>
<path d="M825.606 769.982C796.956 770.02 773.703 793.099 773.384 821.679C802.035 821.641 825.275 798.562 825.606 769.982Z" fill="#007C37" fill-opacity="0.05"/>
<path d="M880.484 821.947C880.445 793.29 857.371 770.033 828.784 769.714C828.823 798.37 851.896 821.628 880.484 821.947Z" fill="#007C37" fill-opacity="0.05"/>
<path d="M828.261 766.522C856.912 766.484 880.164 743.405 880.484 714.812C851.833 714.851 828.58 737.929 828.261 766.522Z" fill="#007C37" fill-opacity="0.05"/>
<path d="M773.384 714.557C773.422 743.214 796.496 766.471 825.083 766.79C825.045 738.134 801.971 714.876 773.384 714.557Z" fill="#3AAA35" fill-opacity="0.05"/>
<path d="M935.897 769.982C907.246 770.02 883.993 793.099 883.674 821.679C912.325 821.641 935.578 798.562 935.897 769.982Z" fill="#007C37" fill-opacity="0.05"/>
<path d="M990.774 821.947C990.736 793.29 967.662 770.033 939.074 769.714C939.113 798.37 962.187 821.628 990.774 821.947Z" fill="#007C37" fill-opacity="0.05"/>
<path d="M938.551 766.522C967.202 766.484 990.455 743.405 990.774 714.812C962.123 714.851 938.87 737.929 938.551 766.522Z" fill="#3AAA35" fill-opacity="0.05"/>
<path d="M552.599 385.227C552.638 413.884 575.712 437.141 604.299 437.46C604.26 408.803 581.187 385.546 552.599 385.227Z" fill="#3AAA35" fill-opacity="0.05"/>
<path d="M604.822 660.205C576.171 660.243 552.918 683.322 552.599 711.902C581.25 711.864 604.49 688.785 604.822 660.205Z" fill="#007C37" fill-opacity="0.05"/>
<path d="M659.699 821.947C659.661 793.29 636.587 770.033 608 769.714C608.038 798.37 631.112 821.628 659.699 821.947Z" fill="#3AAA35" fill-opacity="0.05"/>
<path d="M607.477 766.522C636.127 766.484 659.38 743.405 659.699 714.812C631.048 714.851 607.796 737.929 607.477 766.522Z" fill="#007C37" fill-opacity="0.05"/>
<path d="M769.989 821.947C769.951 793.29 746.877 770.033 718.29 769.714C718.328 798.37 741.402 821.628 769.989 821.947Z" fill="#91C254" fill-opacity="0.05"/>
<path d="M662.89 714.557C662.928 743.214 686.002 766.471 714.589 766.79C714.551 738.134 691.477 714.876 662.89 714.557Z" fill="#007C37" fill-opacity="0.05"/>
<path d="M384.037 0.268066C355.387 0.306361 332.134 23.385 331.815 51.978C360.466 51.9397 383.706 28.8611 384.037 0.268066Z" fill="#007C37" fill-opacity="0.05"/>
<path d="M549.205 52.2333C549.166 23.5765 526.093 0.319118 497.505 0C497.544 28.6568 520.618 51.9014 549.205 52.2333Z" fill="#007C37" fill-opacity="0.05"/>
<path d="M384.037 110.045C355.387 110.083 332.134 133.162 331.815 161.755C360.466 161.716 383.706 138.638 384.037 110.045Z" fill="#007C37" fill-opacity="0.05"/>
<path d="M386.692 106.586C415.343 106.547 438.595 83.4686 438.915 54.8756C410.264 54.9139 387.011 77.9925 386.692 106.586Z" fill="#007C37" fill-opacity="0.05"/>
<path d="M331.815 54.6203C331.853 83.2771 354.927 106.534 383.514 106.854C383.476 78.1968 360.402 54.9394 331.815 54.6203Z" fill="#007C37" fill-opacity="0.05"/>
<path d="M494.328 110.045C465.677 110.083 442.424 133.162 442.105 161.755C470.756 161.716 494.009 138.638 494.328 110.045Z" fill="#007C37" fill-opacity="0.05"/>
<path d="M549.205 162.01C549.166 133.353 526.093 110.096 497.505 109.777C497.544 138.434 520.618 161.678 549.205 162.01Z" fill="#91C254" fill-opacity="0.05"/>
<path d="M496.982 106.586C525.633 106.547 548.886 83.4686 549.205 54.8756C520.554 54.9139 497.301 77.9925 496.982 106.586Z" fill="#91C254" fill-opacity="0.05"/>
<path d="M442.105 54.6203C442.143 83.2771 465.217 106.534 493.804 106.854C493.766 78.1968 470.692 54.9394 442.105 54.6203Z" fill="#007C37" fill-opacity="0.05"/>
<path d="M384.037 219.822C355.387 219.86 332.134 242.938 331.815 271.531C360.466 271.493 383.706 248.415 384.037 219.822Z" fill="#007C37" fill-opacity="0.05"/>
<path d="M386.692 216.362C415.343 216.324 438.595 193.245 438.915 164.652C410.264 164.691 387.011 187.769 386.692 216.362Z" fill="#007C37" fill-opacity="0.05"/>
<path d="M331.815 164.397C331.853 193.054 354.927 216.311 383.514 216.63C383.476 187.974 360.402 164.716 331.815 164.397Z" fill="#007C37" fill-opacity="0.05"/>
<path d="M494.328 219.822C465.677 219.86 442.424 242.938 442.105 271.531C470.756 271.493 494.009 248.415 494.328 219.822Z" fill="#007C37" fill-opacity="0.05"/>
<path d="M549.205 271.787C549.166 243.13 526.093 219.873 497.505 219.553C497.544 248.21 520.618 271.455 549.205 271.787Z" fill="#91C254" fill-opacity="0.05"/>
<path d="M496.982 216.362C525.633 216.324 548.886 193.245 549.205 164.652C520.554 164.691 497.301 187.769 496.982 216.362Z" fill="#007C37" fill-opacity="0.05"/>
<path d="M442.105 164.397C442.143 193.054 465.217 216.311 493.804 216.63C493.766 187.974 470.692 164.716 442.105 164.397Z" fill="#007C37" fill-opacity="0.05"/>
<path d="M384.037 329.598C355.387 329.636 332.134 352.715 331.815 381.308C360.466 381.27 383.706 358.191 384.037 329.598Z" fill="#007C37" fill-opacity="0.05"/>
<path d="M438.915 381.564C438.876 352.907 415.802 329.649 387.215 329.33C387.253 357.987 410.327 381.232 438.915 381.564Z" fill="#3AAA35" fill-opacity="0.05"/>
<path d="M386.692 326.139C415.343 326.101 438.595 303.022 438.915 274.429C410.264 274.467 387.011 297.546 386.692 326.139Z" fill="#3AAA35" fill-opacity="0.05"/>
<path d="M331.815 274.174C331.853 302.831 354.927 326.088 383.514 326.407C383.476 297.75 360.402 274.493 331.815 274.174Z" fill="#007C37" fill-opacity="0.05"/>
<path d="M494.328 329.598C465.677 329.636 442.424 352.715 442.105 381.308C470.756 381.27 494.009 358.191 494.328 329.598Z" fill="#007C37" fill-opacity="0.05"/>
<path d="M549.205 381.564C549.166 352.907 526.093 329.649 497.505 329.33C497.544 357.987 520.618 381.232 549.205 381.564Z" fill="#007C37" fill-opacity="0.05"/>
<path d="M496.982 326.139C525.633 326.101 548.886 303.022 549.205 274.429C520.554 274.467 497.301 297.546 496.982 326.139Z" fill="#91C254" fill-opacity="0.05"/>
<path d="M163.253 0.268066C134.602 0.306361 111.349 23.385 111.03 51.978C139.681 51.9397 162.921 28.8611 163.253 0.268066Z" fill="#007C37" fill-opacity="0.05"/>
<path d="M218.13 52.2333C218.092 23.5765 195.018 0.319118 166.431 0C166.469 28.6568 189.543 51.9014 218.13 52.2333Z" fill="#007C37" fill-opacity="0.05"/>
<path d="M328.42 52.2333C328.382 23.5765 305.308 0.319118 276.721 0C276.759 28.6568 299.833 51.9014 328.42 52.2333Z" fill="#007C37" fill-opacity="0.05"/>
<path d="M218.13 162.01C218.092 133.353 195.018 110.096 166.431 109.777C166.469 138.434 189.543 161.678 218.13 162.01Z" fill="#007C37" fill-opacity="0.05"/>
<path d="M273.543 110.045C244.892 110.083 221.64 133.162 221.321 161.755C249.971 161.716 273.224 138.638 273.543 110.045Z" fill="#91C254" fill-opacity="0.05"/>
<path d="M328.42 162.01C328.382 133.353 305.308 110.096 276.721 109.777C276.759 138.434 299.833 161.678 328.42 162.01Z" fill="#007C37" fill-opacity="0.05"/>
<path d="M276.198 106.586C304.849 106.547 328.101 83.4686 328.42 54.8756C299.769 54.9139 276.517 77.9925 276.198 106.586Z" fill="#007C37" fill-opacity="0.05"/>
<path d="M221.321 54.6203C221.359 83.2771 244.433 106.534 273.02 106.854C272.982 78.1968 249.908 54.9394 221.321 54.6203Z" fill="#91C254" fill-opacity="0.05"/>
<path d="M218.13 271.787C218.092 243.13 195.018 219.873 166.431 219.553C166.469 248.21 189.543 271.455 218.13 271.787Z" fill="#007C37" fill-opacity="0.05"/>
<path d="M165.907 216.362C194.558 216.324 217.811 193.245 218.13 164.652C189.479 164.691 166.227 187.769 165.907 216.362Z" fill="#007C37" fill-opacity="0.05"/>
<path d="M273.543 219.822C244.892 219.86 221.64 242.938 221.321 271.531C249.971 271.493 273.224 248.415 273.543 219.822Z" fill="#007C37" fill-opacity="0.05"/>
<path d="M328.42 271.787C328.382 243.13 305.308 219.873 276.721 219.553C276.759 248.21 299.833 271.455 328.42 271.787Z" fill="#007C37" fill-opacity="0.05"/>
<path d="M163.253 329.598C134.602 329.636 111.349 352.715 111.03 381.308C139.681 381.27 162.921 358.191 163.253 329.598Z" fill="#007C37" fill-opacity="0.05"/>
<path d="M218.13 381.564C218.092 352.907 195.018 329.649 166.431 329.33C166.469 357.987 189.543 381.232 218.13 381.564Z" fill="#91C254" fill-opacity="0.05"/>
<path d="M165.907 326.139C194.558 326.101 217.811 303.022 218.13 274.429C189.479 274.467 166.227 297.546 165.907 326.139Z" fill="#91C254" fill-opacity="0.05"/>
<path d="M111.03 274.174C111.069 302.831 134.143 326.088 162.73 326.407C162.691 297.75 139.618 274.493 111.03 274.174Z" fill="#007C37" fill-opacity="0.05"/>
<path d="M273.543 329.598C244.892 329.636 221.64 352.715 221.321 381.308C249.971 381.27 273.224 358.191 273.543 329.598Z" fill="#91C254" fill-opacity="0.05"/>
<path d="M328.42 381.564C328.382 352.907 305.308 329.649 276.721 329.33C276.759 357.987 299.833 381.232 328.42 381.564Z" fill="#91C254" fill-opacity="0.05"/>
<path d="M276.198 326.139C304.849 326.101 328.101 303.022 328.42 274.429C299.769 274.467 276.517 297.546 276.198 326.139Z" fill="#91C254" fill-opacity="0.05"/>
<path d="M221.321 274.174C221.359 302.831 244.433 326.088 273.02 326.407C272.982 297.75 249.908 274.493 221.321 274.174Z" fill="#91C254" fill-opacity="0.05"/>
<path d="M1052.77 110.045C1024.12 110.083 1000.87 133.162 1000.55 161.755C1029.2 161.716 1052.44 138.638 1052.77 110.045Z" fill="#007C37" fill-opacity="0.05"/>
<path d="M1052.77 219.822C1024.12 219.86 1000.87 242.938 1000.55 271.531C1029.2 271.493 1052.44 248.415 1052.77 219.822Z" fill="#91C254" fill-opacity="0.05"/>
<path d="M831.988 110.045C803.337 110.083 780.084 133.162 779.765 161.755C808.416 161.716 831.656 138.638 831.988 110.045Z" fill="#007C37" fill-opacity="0.05"/>
<path d="M942.278 110.045C913.627 110.083 890.374 133.162 890.055 161.755C918.706 161.716 941.959 138.638 942.278 110.045Z" fill="#007C37" fill-opacity="0.05"/>
<path d="M997.155 162.01C997.117 133.353 974.043 110.096 945.456 109.777C945.494 138.434 968.568 161.678 997.155 162.01Z" fill="#91C254" fill-opacity="0.05"/>
<path d="M831.988 219.822C803.337 219.86 780.084 242.938 779.765 271.531C808.416 271.493 831.656 248.415 831.988 219.822Z" fill="#007C37" fill-opacity="0.05"/>
<path d="M779.765 164.397C779.803 193.054 802.877 216.311 831.464 216.63C831.426 187.974 808.352 164.716 779.765 164.397Z" fill="#007C37" fill-opacity="0.05"/>
<path d="M942.278 219.822C913.627 219.86 890.374 242.938 890.055 271.531C918.706 271.493 941.959 248.415 942.278 219.822Z" fill="#007C37" fill-opacity="0.05"/>
<path d="M997.155 271.787C997.117 243.13 974.043 219.873 945.456 219.553C945.494 248.21 968.568 271.455 997.155 271.787Z" fill="#91C254" fill-opacity="0.05"/>
<path d="M944.932 216.362C973.583 216.324 996.836 193.245 997.155 164.652C968.504 164.691 945.251 187.769 944.932 216.362Z" fill="#007C37" fill-opacity="0.05"/>
<path d="M890.055 164.397C890.093 193.054 913.167 216.311 941.754 216.63C941.716 187.974 918.642 164.716 890.055 164.397Z" fill="#007C37" fill-opacity="0.05"/>
<path d="M944.932 326.139C973.583 326.101 996.836 303.022 997.155 274.429C968.504 274.467 945.251 297.546 944.932 326.139Z" fill="#91C254" fill-opacity="0.05"/>
<path d="M721.493 110.045C692.842 110.083 669.59 133.162 669.271 161.755C697.922 161.716 721.174 138.638 721.493 110.045Z" fill="#91C254" fill-opacity="0.05"/>
<path d="M776.37 162.01C776.332 133.353 753.258 110.096 724.671 109.777C724.709 138.434 747.783 161.678 776.37 162.01Z" fill="#007C37" fill-opacity="0.05"/>
<path d="M721.493 219.822C692.842 219.86 669.59 242.938 669.271 271.531C697.922 271.493 721.174 248.415 721.493 219.822Z" fill="#007C37" fill-opacity="0.05"/>
<path d="M776.37 271.787C776.332 243.13 753.258 219.873 724.671 219.553C724.709 248.21 747.783 271.455 776.37 271.787Z" fill="#007C37" fill-opacity="0.05"/>
<path d="M776.37 381.564C776.332 352.907 753.258 329.649 724.671 329.33C724.709 357.987 747.783 381.232 776.37 381.564Z" fill="#91C254" fill-opacity="0.05"/>
<path d="M724.148 326.139C752.799 326.101 776.051 303.022 776.37 274.429C747.719 274.467 724.467 297.546 724.148 326.139Z" fill="#91C254" fill-opacity="0.05"/>
<path d="M669.271 274.174C669.309 302.831 692.383 326.088 720.97 326.407C720.932 297.75 697.858 274.493 669.271 274.174Z" fill="#91C254" fill-opacity="0.05"/>
<path d="M384.037 440.651C355.387 440.69 332.134 463.768 331.815 492.349C360.466 492.31 383.706 469.232 384.037 440.651Z" fill="#007C37" fill-opacity="0.05"/>
<path d="M386.692 437.192C415.343 437.154 438.595 414.075 438.915 385.482C410.264 385.521 387.011 408.599 386.692 437.192Z" fill="#007C37" fill-opacity="0.05"/>
<path d="M331.815 385.227C331.853 413.884 354.927 437.141 383.514 437.46C383.476 408.803 360.402 385.546 331.815 385.227Z" fill="#007C37" fill-opacity="0.05"/>
<path d="M442.105 385.227C442.143 413.884 465.217 437.141 493.804 437.46C493.766 408.803 470.692 385.546 442.105 385.227Z" fill="#007C37" fill-opacity="0.05"/>
<path d="M331.815 495.004C331.853 523.66 354.927 546.918 383.514 547.237C383.476 518.58 360.402 495.323 331.815 495.004Z" fill="#91C254" fill-opacity="0.05"/>
<path d="M442.105 495.004C442.143 523.66 465.217 546.918 493.804 547.237C493.766 518.58 470.692 495.323 442.105 495.004Z" fill="#007C37" fill-opacity="0.05"/>
<path d="M438.915 712.17C438.876 683.513 415.802 660.256 387.215 659.937C387.253 688.594 410.327 711.851 438.915 712.17Z" fill="#007C37" fill-opacity="0.05"/>
<path d="M386.692 656.746C415.343 656.707 438.595 633.629 438.915 605.036C410.264 605.074 387.011 628.153 386.692 656.746Z" fill="#007C37" fill-opacity="0.05"/>
<path d="M605.09 657.014C605.052 628.357 581.978 605.1 553.391 604.78C553.429 633.437 576.503 656.682 605.09 657.014Z" fill="#007C37" fill-opacity="0.05"/>
<path d="M384.037 769.982C355.387 770.02 332.134 793.099 331.815 821.679C360.466 821.641 383.706 798.562 384.037 769.982Z" fill="#007C37" fill-opacity="0.05"/>
<path d="M438.915 821.947C438.876 793.29 415.802 770.033 387.215 769.714C387.253 798.37 410.327 821.628 438.915 821.947Z" fill="#3AAA35" fill-opacity="0.05"/>
<path d="M331.815 714.557C331.853 743.214 354.927 766.471 383.514 766.79C383.476 738.134 360.402 714.876 331.815 714.557Z" fill="#007C37" fill-opacity="0.05"/>
<path d="M494.328 769.982C465.677 770.02 442.424 793.099 442.105 821.679C470.756 821.641 494.009 798.562 494.328 769.982Z" fill="#3AAA35" fill-opacity="0.05"/>
<path d="M549.205 821.947C549.166 793.29 526.093 770.033 497.505 769.714C497.544 798.37 520.618 821.628 549.205 821.947Z" fill="#007C37" fill-opacity="0.05"/>
<path d="M496.982 766.522C525.633 766.484 548.886 743.405 549.205 714.812C520.554 714.851 497.301 737.929 496.982 766.522Z" fill="#007C37" fill-opacity="0.05"/>
<path d="M163.253 440.651C134.602 440.69 111.349 463.768 111.03 492.349C139.681 492.31 162.921 469.232 163.253 440.651Z" fill="#3AAA35" fill-opacity="0.05"/>
<path d="M218.13 492.617C218.092 463.96 195.018 440.702 166.431 440.383C166.469 469.04 189.543 492.298 218.13 492.617Z" fill="#007C37" fill-opacity="0.05"/>
<path d="M165.907 437.192C194.558 437.154 217.811 414.075 218.13 385.482C189.479 385.521 166.227 408.599 165.907 437.192Z" fill="#91C254" fill-opacity="0.05"/>
<path d="M111.03 385.227C111.069 413.884 134.143 437.141 162.73 437.46C162.691 408.803 139.618 385.546 111.03 385.227Z" fill="#007C37" fill-opacity="0.05"/>
<path d="M273.543 440.651C244.892 440.69 221.64 463.768 221.321 492.349C249.971 492.31 273.224 469.232 273.543 440.651Z" fill="#007C37" fill-opacity="0.05"/>
<path d="M328.42 492.617C328.382 463.96 305.308 440.702 276.721 440.383C276.759 469.04 299.833 492.298 328.42 492.617Z" fill="#007C37" fill-opacity="0.05"/>
<path d="M221.321 385.227C221.359 413.884 244.433 437.141 273.02 437.46C272.982 408.803 249.908 385.546 221.321 385.227Z" fill="#91C254" fill-opacity="0.05"/>
<path d="M163.253 550.428C134.602 550.466 111.349 573.545 111.03 602.125C139.681 602.087 162.921 579.008 163.253 550.428Z" fill="#007C37" fill-opacity="0.05"/>
<path d="M218.13 602.393C218.092 573.737 195.018 550.479 166.431 550.16C166.469 578.817 189.543 602.074 218.13 602.393Z" fill="#007C37" fill-opacity="0.05"/>
<path d="M111.03 495.004C111.069 523.66 134.143 546.918 162.73 547.237C162.691 518.58 139.618 495.323 111.03 495.004Z" fill="#3AAA35" fill-opacity="0.05"/>
<path d="M273.543 550.428C244.892 550.466 221.64 573.545 221.321 602.125C249.971 602.087 273.224 579.008 273.543 550.428Z" fill="#007C37" fill-opacity="0.05"/>
<path d="M276.198 546.969C304.849 546.931 328.101 523.852 328.42 495.259C299.769 495.297 276.517 518.376 276.198 546.969Z" fill="#91C254" fill-opacity="0.05"/>
<path d="M662.787 271.787C662.749 243.13 639.675 219.873 611.088 219.553C611.126 248.21 634.2 271.455 662.787 271.787Z" fill="#007C37" fill-opacity="0.05"/>
<path d="M662.787 381.564C662.749 352.907 639.675 329.649 611.088 329.33C611.126 357.987 634.2 381.232 662.787 381.564Z" fill="#91C254" fill-opacity="0.05"/>
<path d="M610.565 326.139C639.216 326.101 662.468 303.022 662.788 274.429C634.137 274.467 610.884 297.546 610.565 326.139Z" fill="#91C254" fill-opacity="0.05"/>
<path d="M662.787 492.617C662.749 463.96 639.675 440.702 611.088 440.383C611.126 469.04 634.2 492.298 662.787 492.617Z" fill="#007C37" fill-opacity="0.05"/>
<path d="M610.565 546.969C639.216 546.931 662.468 523.852 662.788 495.259C634.137 495.297 610.884 518.376 610.565 546.969Z" fill="#91C254" fill-opacity="0.05"/>
<path d="M221.321 495.004C221.359 523.66 244.433 546.918 273.02 547.237C272.982 518.58 249.908 495.323 221.321 495.004Z" fill="#007C37" fill-opacity="0.05"/>
<path d="M163.253 660.205C134.602 660.243 111.349 683.322 111.03 711.902C139.681 711.864 162.921 688.785 163.253 660.205Z" fill="#007C37" fill-opacity="0.05"/>
<path d="M111.03 604.78C111.069 633.437 134.143 656.695 162.73 657.014C162.691 628.357 139.618 605.1 111.03 604.78Z" fill="#007C37" fill-opacity="0.05"/>
<path d="M273.543 660.205C244.892 660.243 221.64 683.322 221.321 711.902C249.971 711.864 273.224 688.785 273.543 660.205Z" fill="#007C37" fill-opacity="0.05"/>
<path d="M328.42 712.17C328.382 683.513 305.308 660.256 276.721 659.937C276.759 688.594 299.833 711.851 328.42 712.17Z" fill="#007C37" fill-opacity="0.05"/>
<path d="M276.198 656.746C304.849 656.707 328.101 633.629 328.42 605.036C299.769 605.074 276.517 628.153 276.198 656.746Z" fill="#007C37" fill-opacity="0.05"/>
<path d="M221.321 604.78C221.359 633.437 244.433 656.695 273.02 657.014C272.982 628.357 249.908 605.1 221.321 604.78Z" fill="#007C37" fill-opacity="0.05"/>
<path d="M163.253 769.982C134.602 770.02 111.349 793.099 111.03 821.679C139.681 821.641 162.921 798.562 163.253 769.982Z" fill="#007C37" fill-opacity="0.05"/>
<path d="M111.03 714.557C111.069 743.214 134.143 766.471 162.73 766.79C162.691 738.134 139.618 714.876 111.03 714.557Z" fill="#007C37" fill-opacity="0.05"/>
<path d="M0 54.6203C0.0382863 83.2771 23.1122 106.534 51.6993 106.854C51.661 78.1968 28.5871 54.9394 0 54.6203Z" fill="#007C37" fill-opacity="0.05"/>
<path d="M52.2226 219.822C23.5716 219.86 0.319053 242.938 0 271.531C28.6509 271.493 51.8907 248.415 52.2226 219.822Z" fill="#007C37" fill-opacity="0.05"/>
<path d="M54.8771 216.362C83.528 216.324 106.781 193.245 107.1 164.652C78.4487 164.691 55.1961 187.769 54.8771 216.362Z" fill="#007C37" fill-opacity="0.05"/>
<path d="M0 164.397C0.0382863 193.054 23.1122 216.311 51.6993 216.63C51.661 187.974 28.5871 164.716 0 164.397Z" fill="#007C37" fill-opacity="0.05"/>
<path d="M107.1 381.564C107.061 352.907 83.9875 329.649 55.4003 329.33C55.4386 357.987 78.5125 381.232 107.1 381.564Z" fill="#007C37" fill-opacity="0.05"/>
<path d="M107.1 492.617C107.061 463.96 83.9875 440.702 55.4003 440.383C55.4386 469.04 78.5125 492.298 107.1 492.617Z" fill="#3AAA35" fill-opacity="0.05"/>
<path d="M54.8771 437.192C83.528 437.154 106.781 414.075 107.1 385.482C78.4487 385.521 55.1961 408.599 54.8771 437.192Z" fill="#007C37" fill-opacity="0.05"/>
<path d="M54.8771 546.969C83.528 546.931 106.781 523.852 107.1 495.259C78.4487 495.297 55.1961 518.376 54.8771 546.969Z" fill="#3AAA35" fill-opacity="0.05"/>
<path d="M52.2226 660.205C23.5716 660.243 0.319053 683.322 0 711.902C28.6509 711.864 51.8907 688.785 52.2226 660.205Z" fill="#007C37" fill-opacity="0.05"/>
<path d="M54.8771 656.746C83.528 656.707 106.781 633.629 107.1 605.036C78.4487 605.074 55.1961 628.153 54.8771 656.746Z" fill="#91C254" fill-opacity="0.05"/>
<path d="M0 604.78C0.0382863 633.437 23.1122 656.695 51.6993 657.014C51.661 628.357 28.5871 605.1 0 604.78Z" fill="#007C37" fill-opacity="0.05"/>
<path d="M0 714.557C0.0382863 743.214 23.1122 766.471 51.6993 766.79C51.661 738.134 28.5871 714.876 0 714.557Z" fill="#007C37" fill-opacity="0.05"/>
<path d="M221.321 714.557C221.359 743.214 244.433 766.471 273.02 766.79C272.982 738.134 249.908 714.876 221.321 714.557Z" fill="#007C37" fill-opacity="0.05"/>
<path d="M770.461 933C770.423 904.343 747.349 881.086 718.775 880.767C718.813 909.424 741.887 932.668 770.461 933Z" fill="#007C37" fill-opacity="0.05"/>
<path d="M773.384 825.61C773.422 854.267 796.496 877.525 825.083 877.844C825.045 849.187 801.971 825.929 773.384 825.61Z" fill="#91C254" fill-opacity="0.05"/>
<path d="M935.897 881.035C907.246 881.073 883.993 904.152 883.674 932.732C912.325 932.694 935.578 909.615 935.897 881.035Z" fill="#007C37" fill-opacity="0.05"/>
<path d="M883.674 825.61C883.712 854.267 906.786 877.525 935.373 877.844C935.335 849.187 912.261 825.929 883.674 825.61Z" fill="#3AAA35" fill-opacity="0.05"/>
<path d="M607.477 877.576C636.127 877.537 659.38 854.459 659.699 825.866C631.048 825.904 607.796 848.983 607.477 877.576Z" fill="#007C37" fill-opacity="0.05"/>
<path d="M552.599 825.61C552.638 854.267 575.712 877.525 604.299 877.844C604.26 849.187 581.187 825.929 552.599 825.61Z" fill="#007C37" fill-opacity="0.05"/>
<path d="M662.89 825.61C662.928 854.267 686.002 877.525 714.589 877.844C714.551 849.187 691.477 825.929 662.89 825.61Z" fill="#007C37" fill-opacity="0.05"/>
<path d="M331.815 825.61C331.853 854.267 354.927 877.525 383.514 877.844C383.476 849.187 360.402 825.929 331.815 825.61Z" fill="#007C37" fill-opacity="0.05"/>
<path d="M496.982 877.576C525.633 877.537 548.886 854.459 549.205 825.866C520.554 825.904 497.301 848.983 496.982 877.576Z" fill="#007C37" fill-opacity="0.05"/>
<path d="M54.8771 877.576C83.528 877.537 106.781 854.459 107.1 825.866C78.4487 825.904 55.1961 848.983 54.8771 877.576Z" fill="#007C37" fill-opacity="0.05"/>
<path d="M276.198 877.576C304.849 877.537 328.101 854.459 328.42 825.866C299.769 825.904 276.517 848.983 276.198 877.576Z" fill="#91C254" fill-opacity="0.05"/>
<path d="M608.281 657.014C636.931 656.975 660.184 633.897 660.503 605.304C631.852 605.342 608.6 628.421 608.281 657.014Z" fill="#91C254" fill-opacity="0.05"/>
<path d="M1380.76 875.929C1352.11 875.967 1328.85 899.046 1328.54 927.626C1357.19 927.588 1380.43 904.509 1380.76 875.929Z" fill="#007C37" fill-opacity="0.05"/>
<path d="M1214.85 927.894C1214.81 899.237 1191.74 875.98 1163.15 875.661C1163.19 904.318 1186.26 927.575 1214.85 927.894Z" fill="#007C37" fill-opacity="0.05"/>
<path d="M1162.63 872.47C1191.28 872.431 1214.53 849.353 1214.85 820.76C1186.2 820.798 1162.95 843.877 1162.63 872.47Z" fill="#007C37" fill-opacity="0.05"/>
<path d="M1381.03 872.738C1380.99 844.081 1357.91 820.824 1329.33 820.504C1329.37 849.161 1352.44 872.406 1381.03 872.738Z" fill="#007C37" fill-opacity="0.05"/>
<path d="M1438.72 708.341C1438.69 679.684 1415.61 656.426 1387.02 656.107C1387.06 684.764 1410.14 708.022 1438.72 708.341Z" fill="#007C37" fill-opacity="0.05"/>
<path d="M1386.5 762.693C1415.15 762.655 1438.4 739.576 1438.72 710.983C1410.07 711.021 1386.82 734.1 1386.5 762.693Z" fill="#91C254" fill-opacity="0.05"/>
<path d="M1384.22 872.738C1412.87 872.699 1436.12 849.621 1436.44 821.028C1407.79 821.066 1384.54 844.145 1384.22 872.738Z" fill="#91C254" fill-opacity="0.05"/>
<path d="M829.537 658.392C829.576 687.049 852.649 710.307 881.237 710.626C881.198 681.969 858.124 658.711 829.537 658.392Z" fill="#91C254" fill-opacity="0.05"/>
<path d="M1138.78 32.056C1135.52 32.056 1132.26 31.736 1128.99 31.096C1125.73 30.456 1122.91 29.56 1120.54 28.408C1118.5 27.448 1117.06 26.264 1116.22 24.856C1115.46 23.448 1115.14 22.008 1115.26 20.536C1115.39 19.064 1115.9 17.752 1116.8 16.6C1117.76 15.448 1118.98 14.68 1120.45 14.296C1121.98 13.848 1123.71 14.04 1125.63 14.872C1128 15.896 1130.18 16.6 1132.16 16.984C1134.14 17.368 1136.13 17.56 1138.11 17.56C1140.42 17.56 1142.34 17.304 1143.87 16.792C1145.41 16.28 1146.56 15.512 1147.33 14.488C1148.1 13.4 1148.48 12.056 1148.48 10.456C1148.48 8.216 1147.68 6.584 1146.08 5.56C1144.54 4.472 1142.27 3.928 1139.26 3.928H1134.08C1131.65 3.928 1129.79 3.32 1128.51 2.104C1127.23 0.887998 1126.59 -0.840002 1126.59 -3.08C1126.59 -5.32 1127.23 -7.048 1128.51 -8.264C1129.79 -9.48 1131.65 -10.088 1134.08 -10.088H1137.54C1139.39 -10.088 1140.96 -10.344 1142.24 -10.856C1143.58 -11.368 1144.61 -12.104 1145.31 -13.064C1146.02 -14.088 1146.37 -15.336 1146.37 -16.808C1146.37 -18.92 1145.6 -20.52 1144.06 -21.608C1142.59 -22.696 1140.38 -23.24 1137.44 -23.24C1135.65 -23.24 1133.82 -23.048 1131.97 -22.664C1130.11 -22.28 1128.13 -21.608 1126.02 -20.648C1124.35 -19.944 1122.82 -19.784 1121.41 -20.168C1120.06 -20.552 1118.94 -21.288 1118.05 -22.376C1117.22 -23.528 1116.7 -24.776 1116.51 -26.12C1116.32 -27.528 1116.54 -28.904 1117.18 -30.248C1117.82 -31.592 1119.04 -32.712 1120.83 -33.608C1123.52 -34.952 1126.43 -35.976 1129.57 -36.68C1132.77 -37.384 1135.97 -37.736 1139.17 -37.736C1144.22 -37.736 1148.54 -37 1152.13 -35.528C1155.71 -34.056 1158.43 -31.912 1160.29 -29.096C1162.21 -26.344 1163.17 -23.016 1163.17 -19.112C1163.17 -16.552 1162.69 -14.184 1161.73 -12.008C1160.77 -9.832 1159.36 -8.008 1157.5 -6.536C1155.65 -5.128 1153.47 -4.104 1150.98 -3.464V-4.808C1155.46 -4.104 1158.94 -2.216 1161.44 0.855999C1164 3.864 1165.28 7.64 1165.28 12.184C1165.28 16.28 1164.22 19.832 1162.11 22.84C1160 25.848 1156.96 28.152 1152.99 29.752C1149.02 31.288 1144.29 32.056 1138.78 32.056ZM1208.54 31.864C1205.85 31.864 1203.74 31.128 1202.2 29.656C1200.73 28.184 1199.99 26.008 1199.99 23.128V19.672H1180.7C1177.88 19.672 1175.67 19.032 1174.07 17.752C1172.54 16.472 1171.77 14.52 1171.77 11.896C1171.77 10.36 1172.06 8.888 1172.63 7.48C1173.21 6.008 1174.23 4.248 1175.71 2.2L1199.13 -31.976C1200.41 -33.896 1201.85 -35.304 1203.45 -36.2C1205.05 -37.096 1206.94 -37.544 1209.11 -37.544C1211.55 -37.544 1213.47 -36.808 1214.87 -35.336C1216.28 -33.928 1216.99 -31.752 1216.99 -28.808V6.328H1219.29C1221.72 6.328 1223.55 6.904 1224.76 8.056C1226.04 9.208 1226.68 10.84 1226.68 12.952C1226.68 15.128 1226.04 16.792 1224.76 17.944C1223.55 19.096 1221.72 19.672 1219.29 19.672H1216.99V23.128C1216.99 25.944 1216.25 28.12 1214.78 29.656C1213.37 31.128 1211.29 31.864 1208.54 31.864ZM1199.99 6.328V-16.328H1202.68L1184.63 10.456V6.328H1199.99Z" fill="white"/>
</g>
<defs>
<clipPath id="clip0_24_26">
<rect width="1440" height="933" fill="white"/>
</clipPath>
</defs>
</svg>
