<svg width="63" height="63" viewBox="0 0 63 63" fill="none" xmlns="http://www.w3.org/2000/svg">
<rect width="63" height="63" rx="12" fill="white"/>
<path d="M50 14V18C50 21.713 48.525 25.274 45.8995 27.8995C43.274 30.525 39.713 32 36 32H34V34H44V48C44 49.0609 43.5786 50.0783 42.8284 50.8284C42.0783 51.5786 41.0609 52 40 52H24C22.9391 52 21.9217 51.5786 21.1716 50.8284C20.4214 50.0783 20 49.0609 20 48V34H30V28C30 24.287 31.475 20.726 34.1005 18.1005C36.726 15.475 40.287 14 44 14H50ZM19 12C21.4 11.9981 23.7652 12.5728 25.8967 13.6758C28.0282 14.7787 29.8635 16.3777 31.248 18.338C29.1357 21.1157 27.9945 24.5104 28 28V30H27C23.0218 30 19.2064 28.4197 16.3934 25.6066C13.5804 22.7936 12 18.9783 12 15V12H19Z" fill="#146B1C"/>
</svg>
